<?xml version="1.0" standalone="no"?>
<!DOCTYPE svg PUBLIC "-//W3C//DTD SVG 20010904//EN"
 "http://www.w3.org/TR/2001/REC-SVG-20010904/DTD/svg10.dtd">
<svg version="1.0" xmlns="http://www.w3.org/2000/svg"
 width="200.000000pt" height="200.000000pt" viewBox="0 0 200.000000 200.000000"
 preserveAspectRatio="xMidYMid meet">

<g transform="translate(0.000000,200.000000) scale(0.100000,-0.100000)"
fill="#000000" stroke="none">
<path d="M994 1922 c-6 -4 -25 -50 -44 -102 -80 -218 -210 -455 -391 -712 -49
-70 -100 -151 -114 -180 -105 -226 -53 -507 126 -686 190 -188 468 -234 709
-116 104 51 223 170 274 274 84 172 86 367 7 532 -16 35 -72 122 -123 193 -52
72 -111 161 -133 198 -21 37 -42 67 -46 67 -3 0 -46 -61 -94 -136 l-88 -136
106 -156 c57 -87 110 -172 116 -191 16 -50 13 -150 -6 -207 -23 -69 -110 -155
-182 -179 -68 -22 -144 -22 -212 0 -74 25 -159 110 -183 183 -19 57 -22 148
-7 200 6 19 116 193 246 387 129 195 235 358 235 363 0 5 -22 56 -49 113 -27
57 -64 145 -81 196 -31 88 -46 109 -66 95z"/>
</g>
</svg>
